<svg width="32" height="32" viewBox="0 0 32 32" fill="none" xmlns="http://www.w3.org/2000/svg">
<rect width="32" height="32" rx="16" fill="#5865F2"/>
<path d="M22.9566 9.76686C25.2154 13.0358 26.3309 16.723 25.9139 20.9678C25.9121 20.9858 25.9026 21.0023 25.8876 21.0131C24.1771 22.2494 22.5199 22.9997 20.8859 23.4973C20.8732 23.5011 20.8596 23.5009 20.847 23.4967C20.8344 23.4925 20.8234 23.4845 20.8157 23.4739C20.4382 22.9569 20.0952 22.4118 19.7947 21.8394C19.7774 21.8057 19.7932 21.7651 19.8287 21.7518C20.3734 21.5498 20.8914 21.3077 21.3896 21.021C21.4289 20.9983 21.4314 20.943 21.3951 20.9164C21.2894 20.8391 21.1846 20.7579 21.0844 20.6767C21.0656 20.6617 21.0404 20.6588 21.0192 20.6688C17.7844 22.1392 14.2409 22.1392 10.9679 20.6688C10.9467 20.6595 10.9214 20.6627 10.9032 20.6775C10.8032 20.7587 10.6982 20.8391 10.5934 20.9164C10.5572 20.943 10.5602 20.9983 10.5997 21.021C11.0979 21.3022 11.6159 21.5498 12.1599 21.7528C12.1952 21.7661 12.2119 21.8057 12.1944 21.8394C11.9004 22.4126 11.5574 22.9576 11.1729 23.4746C11.1562 23.4955 11.1287 23.5051 11.1027 23.4973C9.47642 22.9997 7.81917 22.2494 6.10868 21.0131C6.09443 21.0023 6.08418 20.9851 6.08268 20.9671C5.73418 17.2954 6.44442 13.5776 9.03717 9.76612C9.04342 9.75603 9.05292 9.74816 9.06392 9.74348C10.3397 9.16717 11.7064 8.74318 13.1349 8.50104C13.1609 8.4971 13.1869 8.50891 13.2004 8.53155C13.3769 8.83915 13.5787 9.23361 13.7152 9.55597C15.2209 9.32958 16.7502 9.32958 18.2874 9.55597C18.4239 9.2405 18.6187 8.83915 18.7944 8.53155C18.8007 8.52032 18.8104 8.51132 18.8221 8.50584C18.8339 8.50036 18.8471 8.49868 18.8599 8.50104C20.2892 8.74392 21.6559 9.16791 22.9306 9.74348C22.9419 9.74816 22.9511 9.75603 22.9566 9.76686ZM14.4807 16.7481C14.4964 15.6626 13.6924 14.7645 12.6832 14.7645C11.6822 14.7645 10.8859 15.6548 10.8859 16.7481C10.8859 17.8412 11.6979 18.7315 12.6832 18.7315C13.6844 18.7315 14.4807 17.8412 14.4807 16.7481ZM21.1261 16.7481C21.1419 15.6626 20.3379 14.7645 19.3289 14.7645C18.3277 14.7645 17.5314 15.6548 17.5314 16.7481C17.5314 17.8412 18.3434 18.7315 19.3289 18.7315C20.3379 18.7315 21.1261 17.8412 21.1261 16.7481Z" fill="white"/>
</svg>
