<svg width="24" height="24" viewBox="0 0 24 24" fill="none" xmlns="http://www.w3.org/2000/svg">
<path d="M11.2141 0.00651952C11.1625 0.0112109 10.9982 0.0276308 10.8504 0.0393593C7.44164 0.346646 4.24868 2.18567 2.22639 5.01224C1.10029 6.58385 0.380059 8.36658 0.107918 10.2549C0.0117302 10.914 0 11.1087 0 12.0024C0 12.8961 0.0117302 13.0908 0.107918 13.75C0.760117 18.256 3.96716 22.042 8.31672 23.4447C9.0956 23.6957 9.91672 23.8669 10.8504 23.9702C11.2141 24.01 12.7859 24.01 13.1496 23.9702C14.7613 23.7919 16.1267 23.3931 17.4733 22.7058C17.6798 22.6003 17.7196 22.5721 17.6915 22.5487C17.6727 22.5346 16.793 21.3547 15.7372 19.9285L13.8182 17.3365L11.4135 13.7781C10.0903 11.8218 9.00176 10.222 8.99238 10.222C8.98299 10.2197 8.97361 11.8007 8.96891 13.7312C8.96188 17.1113 8.95953 17.2474 8.9173 17.3271C8.85631 17.4421 8.80938 17.489 8.71085 17.5406C8.63578 17.5781 8.57009 17.5852 8.21584 17.5852H7.80997L7.70205 17.5171C7.63167 17.4726 7.58006 17.4139 7.54487 17.3459L7.4956 17.2404L7.50029 12.5372L7.50733 7.83176L7.58006 7.74028C7.6176 7.69102 7.69736 7.62769 7.75367 7.59719C7.84985 7.55028 7.88739 7.54559 8.29325 7.54559C8.77185 7.54559 8.85161 7.56435 8.97595 7.7004C9.01114 7.73793 10.3132 9.69894 11.871 12.0611C13.4287 14.4232 15.5589 17.6485 16.6053 19.2318L18.5056 22.11L18.6018 22.0467C19.4534 21.4931 20.3543 20.7049 21.0674 19.884C22.5853 18.1411 23.5636 16.0159 23.8921 13.75C23.9883 13.0908 24 12.8961 24 12.0024C24 11.1087 23.9883 10.914 23.8921 10.2549C23.2399 5.74878 20.0328 1.96283 15.6833 0.560104C14.9161 0.31146 14.0997 0.140224 13.1848 0.0370136C12.9595 0.0135566 11.4088 -0.012246 11.2141 0.00651952ZM16.1267 7.2641C16.2393 7.3204 16.3308 7.4283 16.3636 7.5409C16.3824 7.60188 16.3871 8.90609 16.3824 11.8452L16.3754 16.0628L15.6317 14.9228L14.8856 13.7828V10.717C14.8856 8.73486 14.895 7.62065 14.9091 7.5667C14.9466 7.43534 15.0287 7.33213 15.1413 7.27114C15.2375 7.22188 15.2727 7.21719 15.6411 7.21719C15.9883 7.21719 16.0493 7.22188 16.1267 7.2641Z" fill="white"/>
</svg>
