<svg width="25" height="24" viewBox="0 0 25 24" fill="none" xmlns="http://www.w3.org/2000/svg">
<path d="M12.5 5C9.43324 5 7.51662 6.55559 6.74986 9.66647C7.9 8.11088 9.24169 7.52776 10.7749 7.91651C11.6498 8.13832 12.2751 8.78244 12.9674 9.49515C14.0948 10.6562 15.3997 11.9999 18.2501 11.9999C21.3166 11.9999 23.2335 10.4443 24 7.33309C22.8501 8.88868 21.5085 9.4721 19.9749 9.08335C19.1003 8.86154 18.4751 8.21741 17.7828 7.5047C16.6554 6.3437 15.3502 5 12.5 5ZM6.74986 11.9999C3.68338 11.9999 1.76647 13.5554 1 16.6666C2.14986 15.111 3.49155 14.5276 5.02507 14.9167C5.89969 15.1388 6.52495 15.7826 7.21722 16.495C8.34464 17.656 9.64981 19 12.5 19C15.5668 19 17.4834 17.4444 18.2501 14.3332C17.1 15.8888 15.7583 16.4722 14.2251 16.0832C13.3502 15.8617 12.7249 15.2173 12.0326 14.5048C10.9052 13.3438 9.60034 11.9999 6.74986 11.9999Z" fill="#06B6D4"/>
</svg>
