<svg width="32" height="32" viewBox="0 0 32 32" fill="none" xmlns="http://www.w3.org/2000/svg">
<rect width="32" height="32" rx="16" fill="#FF0000"/>
<path d="M25.5821 11.1905C25.3521 10.3283 24.6744 9.64921 23.8139 9.41876C22.2542 9 16 9 16 9C16 9 9.74586 9 8.18613 9.41876C7.32565 9.64925 6.64794 10.3283 6.41792 11.1905C6 12.7534 6 16.0141 6 16.0141C6 16.0141 6 19.2749 6.41792 20.8378C6.64794 21.7 7.32565 22.3508 8.18613 22.5812C9.74586 23 16 23 16 23C16 23 22.2541 23 23.8139 22.5812C24.6744 22.3508 25.3521 21.7 25.5821 20.8378C26 19.2749 26 16.0141 26 16.0141C26 16.0141 26 12.7534 25.5821 11.1905ZM13.9545 18.9747V13.0536L19.1818 16.0142L13.9545 18.9747Z" fill="white"/>
</svg>
